<svg xmlns="http://www.w3.org/2000/svg" viewBox="0 0 1200 675" width="1200" height="675" role="img" aria-label="DailyCodeforce placeholder artwork">
<defs>
<linearGradient id="g" x1="0" y1="0" x2="1" y2="1"><stop offset="0" stop-color="#5eeaa0" stop-opacity=".42"/><stop offset="1" stop-color="#6ea8fe" stop-opacity=".18"/></linearGradient>
<pattern id="p" width="40" height="40" patternUnits="userSpaceOnUse"><path d="M40 0H0v40" fill="none" stroke="#5eeaa0" stroke-opacity=".12" stroke-width="1"/></pattern>
</defs>
<rect width="1200" height="675" fill="#0b0f16"/><rect width="1200" height="675" fill="url(#g)"/><rect width="1200" height="675" fill="url(#p)"/>
<rect x="969.7" y="106.2" width="59.5" height="59.5" rx="6" fill="#6ea8fe" opacity="0.083" transform="rotate(-24.7 969.7 106.2)"/><rect x="291.7" y="374.2" width="97.6" height="97.6" rx="6" fill="#5eeaa0" opacity="0.091" transform="rotate(-7.5 291.7 374.2)"/><rect x="594.9" y="351.2" width="60.6" height="60.6" rx="6" fill="#6ea8fe" opacity="0.134" transform="rotate(-29.0 594.9 351.2)"/><rect x="565.6" y="515.3" width="85.8" height="85.8" rx="6" fill="#5eeaa0" opacity="0.060" transform="rotate(2.0 565.6 515.3)"/><rect x="683.1" y="187.0" width="78.4" height="78.4" rx="6" fill="#6ea8fe" opacity="0.060" transform="rotate(-12.5 683.1 187.0)"/><rect x="454.3" y="398.4" width="91.7" height="91.7" rx="6" fill="#5eeaa0" opacity="0.138" transform="rotate(-12.8 454.3 398.4)"/><rect x="775.5" y="663.3" width="39.4" height="39.4" rx="6" fill="#6ea8fe" opacity="0.095" transform="rotate(0.9 775.5 663.3)"/><rect x="723.5" y="616.1" width="59.3" height="59.3" rx="6" fill="#5eeaa0" opacity="0.059" transform="rotate(19.5 723.5 616.1)"/><rect x="476.8" y="119.3" width="67.7" height="67.7" rx="6" fill="#6ea8fe" opacity="0.084" transform="rotate(-0.8 476.8 119.3)"/><rect x="1018.6" y="34.8" width="68.0" height="68.0" rx="6" fill="#5eeaa0" opacity="0.154" transform="rotate(-21.0 1018.6 34.8)"/><rect x="3.6" y="177.3" width="50.7" height="50.7" rx="6" fill="#6ea8fe" opacity="0.066" transform="rotate(-22.4 3.6 177.3)"/><rect x="558.6" y="7.7" width="84.8" height="84.8" rx="6" fill="#5eeaa0" opacity="0.156" transform="rotate(13.7 558.6 7.7)"/><rect x="163.6" y="325.0" width="64.1" height="64.1" rx="6" fill="#6ea8fe" opacity="0.131" transform="rotate(5.0 163.6 325.0)"/><rect x="1019.5" y="600.2" width="44.8" height="44.8" rx="6" fill="#5eeaa0" opacity="0.146" transform="rotate(-15.8 1019.5 600.2)"/><rect x="789.3" y="79.8" width="52.0" height="52.0" rx="6" fill="#6ea8fe" opacity="0.085" transform="rotate(18.3 789.3 79.8)"/><rect x="557.3" y="439.5" width="71.2" height="71.2" rx="6" fill="#5eeaa0" opacity="0.116" transform="rotate(-28.7 557.3 439.5)"/><rect x="856.7" y="64.6" width="29.5" height="29.5" rx="6" fill="#6ea8fe" opacity="0.134" transform="rotate(-10.9 856.7 64.6)"/><rect x="1026.4" y="447.5" width="101.3" height="101.3" rx="6" fill="#5eeaa0" opacity="0.122" transform="rotate(-12.7 1026.4 447.5)"/><rect x="1048.8" y="610.9" width="45.9" height="45.9" rx="6" fill="#6ea8fe" opacity="0.131" transform="rotate(21.4 1048.8 610.9)"/><rect x="54.9" y="622.2" width="107.0" height="107.0" rx="6" fill="#5eeaa0" opacity="0.133" transform="rotate(-2.7 54.9 622.2)"/><rect x="475.2" y="158.0" width="91.1" height="91.1" rx="6" fill="#6ea8fe" opacity="0.091" transform="rotate(-23.3 475.2 158.0)"/><rect x="1118.4" y="299.0" width="85.0" height="85.0" rx="6" fill="#5eeaa0" opacity="0.133" transform="rotate(1.0 1118.4 299.0)"/><rect x="281.7" y="652.0" width="95.0" height="95.0" rx="6" fill="#6ea8fe" opacity="0.155" transform="rotate(9.9 281.7 652.0)"/><rect x="76.4" y="525.8" width="64.4" height="64.4" rx="6" fill="#5eeaa0" opacity="0.050" transform="rotate(6.7 76.4 525.8)"/>
<text x="60" y="583" font-family="ui-monospace, SFMono-Regular, Menlo, monospace" font-size="32" fill="#f2f6fb" opacity=".85">placeholder-dailycodeforce.svg</text>
<text x="60" y="625" font-family="ui-monospace, SFMono-Regular, Menlo, monospace" font-size="21" fill="#f2f6fb" opacity=".55">replace with a real DailyCodeforce screenshot</text>
</svg>